<svg width="20" height="20" viewBox="0 0 20 20" fill="none" xmlns="http://www.w3.org/2000/svg">
<path d="M5 4a1 1 0 0 1 1 1v1.38A5.99 5.99 0 0 1 10 4a6 6 0 0 1 5.96 5.16.75.75 0 0 1-1.48.23A4.5 4.5 0 0 0 10 5.5c-1.38 0-2.62.62-3.45 1.6L8 8.5a1 1 0 0 1-.71 1.71H4a1 1 0 0 1-1-1V5a1 1 0 0 1 1-1h1Zm1 12a1 1 0 0 1-1-1v-1.37A5.99 5.99 0 0 0 10 17a6 6 0 0 0 5.96-5.16.75.75 0 0 0-1.48-.23A4.5 4.5 0 0 1 10 15.5c-1.38 0-2.62-.62-3.45-1.6L8 12.5a1 1 0 0 0-.71-1.71H4a1 1 0 0 0-1 1V15a1 1 0 0 0 1 1h1Z" fill="#cccccc" stroke="#cccccc" stroke-width="1" stroke-linejoin="round"/>
</svg>
