<svg width="20" height="20" viewBox="0 0 20 20" fill="none" xmlns="http://www.w3.org/2000/svg">
<path d="M10 2a.75.75 0 0 1 .75.75v4.79l1.72-1.72a.75.75 0 1 1 1.06 1.06l-3 3a.75.75 0 0 1-1.06 0l-3-3a.75.75 0 0 1 1.06-1.06l1.72 1.72V2.75A.75.75 0 0 1 10 2ZM6.47 7.47a.75.75 0 0 1 0 1.06l-1.72 1.72h4.79a.75.75 0 0 1 0 1.5H4.75l1.72 1.72a.75.75 0 1 1-1.06 1.06l-3-3a.75.75 0 0 1 0-1.06l3-3a.75.75 0 0 1 1.06 0ZM10 12.5a.75.75 0 0 1 .75.75v4a.75.75 0 0 1-1.5 0v-4a.75.75 0 0 1 .75-.75Zm5.47-1.97a.75.75 0 0 1 1.06 0l3 3a.75.75 0 0 1 0 1.06l-3 3a.75.75 0 1 1-1.06-1.06l1.72-1.72h-4.79a.75.75 0 0 1 0-1.5h4.79l-1.72-1.72a.75.75 0 0 1 0-1.06Z" fill="#cccccc" stroke="#cccccc" stroke-width="1" stroke-linejoin="round"/>
</svg>
